<svg xmlns="http://www.w3.org/2000/svg" height="512" width="512" viewBox="0 0 512 512">
  <g transform="translate(0,512) scale(0.1,-0.1)" fill="#1F3E76" stroke="none">
    <path d="M1420 4478 c-102 -61 -273 -163 -380 -227 l-195 -116 -3 -1567 -2 -1566 222 -133 c123 -73 301 -179 396 -236 95 -56 175 -103 178 -103 5 0 190 107 1069 615 50 29 360 209 690 400 330 191 614 356 630 365 17 10 79 46 138 81 l108 64 0 490 0 490 -143 84 c-79 46 -219 129 -313 184 -93 55 -217 128 -275 162 -58 34 -181 107 -275 162 -236 139 -691 405 -1140 668 -209 122 -407 239 -440 259 -33 20 -64 36 -70 35 -5 0 -93 -51 -195 -111z m294 -287 c143 -83 248 -143 706 -409 223 -129 464 -269 535 -310 72 -41 211 -122 310 -179 99 -58 227 -132 285 -166 58 -33 125 -72 150 -87 25 -15 71 -42 103 -59 31 -18 57 -36 57 -41 0 -6 -822 -482 -859 -498 -4 -1 -7 46 -8 105 -2 245 -103 464 -278 606 -33 26 -105 71 -160 98 -153 78 -1335 763 -1335 774 0 11 358 223 379 224 7 1 59 -25 115 -58z m-353 -572 c501 -294 579 -341 579 -349 0 -4 -15 -13 -32 -21 -60 -23 -165 -97 -222 -154 -76 -78 -139 -182 -177 -295 l-32 -95 -4 -885 c-2 -487 -7 -887 -9 -889 -3 -3 -17 3 -32 12 -15 9 -91 54 -169 99 -78 46 -145 90 -148 98 -9 21 6 2610 15 2610 4 0 108 -59 231 -131z m1010 -575 c164 -48 300 -175 353 -329 79 -227 -36 -520 -246 -623 -82 -40 -134 -51 -241 -52 -199 0 -365 99 -452 269 -74 148 -74 325 0 477 99 203 369 322 586 258z m1597 -605 l-3 -232 -100 -57 c-55 -32 -188 -108 -295 -170 -107 -62 -337 -195 -510 -295 -358 -207 -598 -345 -768 -444 -64 -37 -208 -120 -319 -184 -111 -64 -207 -117 -213 -117 -7 0 -10 161 -10 500 0 344 3 500 11 500 5 0 40 -18 76 -40 84 -50 158 -78 253 -96 98 -17 158 -17 261 1 113 19 156 36 269 101 900 519 1327 762 1338 763 10 1 12 -48 10 -230z"/>
    <path d="M2151 2784 c-143 -50 -205 -209 -137 -347 63 -130 213 -174 346 -101 189 103 141 408 -71 453 -65 14 -85 13 -138 -5z"/>
  </g>
</svg>
